# xmcd
#
# Track frame offsets: 
#        150
#        10030
#        25079
#        35275
#        47588
#        57524
#        68340
#        85290
#        97679
#        108571
#
# Disc length: 1651 seconds
#
# Revision: 0
# Processed by: cddbd v1.5.2PL0 Copyright (c) Steve Scherf et al.
# Submitted via: ExactAudioCopy v1.0b4
#
DISCID=6b06710a
DTITLE=Ike and Tina Turner - Crazy 'Bout You Baby (LP)
DYEAR=1985
DGENRE=Blues
TTITLE0=Beauty Is Just Skin Deep
TTITLE1=Funky Mule
TTITLE2=I'm Fed Up
TTITLE3=Make 'Em Wait
TTITLE4=Poor Little Fool
TTITLE5=You Got What You Wanted
TTITLE6=I Smell Trouble
TTITLE7=Rock Me Baby
TTITLE8=Freedom Sound
TTITLE9=Crazy 'Bout You Baby
EXTD=
EXTT0=
EXTT1=
EXTT2=
EXTT3=
EXTT4=
EXTT5=
EXTT6=
EXTT7=
EXTT8=
EXTT9=
PLAYORDER=
